<?xml version="1.0" standalone="no"?>
<!DOCTYPE svg PUBLIC "-//W3C//DTD SVG 20010904//EN"
 "http://www.w3.org/TR/2001/REC-SVG-20010904/DTD/svg10.dtd">
<svg version="1.0" xmlns="http://www.w3.org/2000/svg"
 width="4500.000000pt" height="4500.000000pt" viewBox="0 0 4500.000000 4500.000000"
 preserveAspectRatio="xMidYMid meet">
<metadata>
Created by potrace 1.14, written by Peter Selinger 2001-2017
</metadata>
<g transform="translate(0.000000,4500.000000) scale(0.100000,-0.100000)"
fill="#000000" stroke="none">
<path d="M34135 35260 c-42 -11 -1 -11 50 -1 34 7 35 9 10 9 -16 0 -43 -4 -60
-8z"/>
<path d="M33995 35235 c-33 -7 -51 -13 -40 -13 11 -1 49 5 85 12 36 8 54 14
40 14 -14 0 -52 -6 -85 -13z"/>
<path d="M33825 35205 c-33 -7 -51 -13 -40 -13 11 -1 49 5 85 12 36 8 54 14
40 14 -14 0 -52 -6 -85 -13z"/>
<path d="M33655 35175 c-33 -7 -51 -13 -40 -13 11 -1 49 5 85 12 36 8 54 14
40 14 -14 0 -52 -6 -85 -13z"/>
<path d="M33485 35145 c-33 -7 -51 -13 -40 -13 11 -1 49 5 85 12 36 8 54 14
40 14 -14 0 -52 -6 -85 -13z"/>
<path d="M34269 35156 c-2 -2 -35 -9 -74 -15 -38 -6 -90 -15 -115 -20 -25 -5
-146 -27 -270 -49 -410 -74 -1584 -283 -1665 -297 -44 -7 -195 -35 -335 -60
-140 -25 -277 -50 -305 -55 -208 -36 -400 -71 -403 -74 -2 -2 185 -217 415
-478 1099 -1244 1942 -2199 1983 -2246 l45 -52 1213 214 c941 167 1224 220
1265 239 56 26 127 82 127 101 0 6 6 23 14 38 25 48 37 160 26 239 -14 100
-49 293 -66 364 -7 33 -14 76 -14 95 0 28 -10 47 -47 90 -169 195 -1709 1938
-1725 1953 -18 15 -58 23 -69 13z"/>
<path d="M33315 35115 c-33 -7 -51 -13 -40 -13 11 -1 49 5 85 12 36 8 54 14
40 14 -14 0 -52 -6 -85 -13z"/>
<path d="M33213 35093 c9 -2 23 -2 30 0 6 3 -1 5 -18 5 -16 0 -22 -2 -12 -5z"/>
<path d="M33153 35083 c9 -2 23 -2 30 0 6 3 -1 5 -18 5 -16 0 -22 -2 -12 -5z"/>
<path d="M33098 35073 c6 -2 18 -2 25 0 6 3 1 5 -13 5 -14 0 -19 -2 -12 -5z"/>
<path d="M33043 35063 c9 -2 23 -2 30 0 6 3 -1 5 -18 5 -16 0 -22 -2 -12 -5z"/>
<path d="M32945 35050 c-27 -7 -27 -8 -5 -8 14 0 39 4 55 8 27 7 27 8 5 8 -14
0 -38 -4 -55 -8z"/>
<path d="M32830 35030 c-34 -7 -34 -7 -5 -8 17 0 44 4 60 8 27 7 27 8 5 8 -14
-1 -41 -4 -60 -8z"/>
<path d="M32758 35013 c7 -3 16 -2 19 1 4 3 -2 6 -13 5 -11 0 -14 -3 -6 -6z"/>
<path d="M32703 35003 c9 -2 23 -2 30 0 6 3 -1 5 -18 5 -16 0 -22 -2 -12 -5z"/>
<path d="M32605 34990 c-27 -7 -27 -8 -5 -8 14 0 39 4 55 8 27 7 27 8 5 8 -14
0 -38 -4 -55 -8z"/>
<path d="M32533 34973 c9 -2 23 -2 30 0 6 3 -1 5 -18 5 -16 0 -22 -2 -12 -5z"/>
<path d="M32473 34963 c9 -2 23 -2 30 0 6 3 -1 5 -18 5 -16 0 -22 -2 -12 -5z"/>
<path d="M32418 34953 c6 -2 18 -2 25 0 6 3 1 5 -13 5 -14 0 -19 -2 -12 -5z"/>
<path d="M32358 34943 c6 -2 18 -2 25 0 6 3 1 5 -13 5 -14 0 -19 -2 -12 -5z"/>
<path d="M32298 34933 c6 -2 18 -2 25 0 6 3 1 5 -13 5 -14 0 -19 -2 -12 -5z"/>
<path d="M32248 34923 c7 -3 16 -2 19 1 4 3 -2 6 -13 5 -11 0 -14 -3 -6 -6z"/>
<path d="M32188 34913 c7 -3 16 -2 19 1 4 3 -2 6 -13 5 -11 0 -14 -3 -6 -6z"/>
<path d="M32128 34903 c7 -3 16 -2 19 1 4 3 -2 6 -13 5 -11 0 -14 -3 -6 -6z"/>
<path d="M31958 34873 c6 -2 18 -2 25 0 6 3 1 5 -13 5 -14 0 -19 -2 -12 -5z"/>
<path d="M31908 34863 c7 -3 16 -2 19 1 4 3 -2 6 -13 5 -11 0 -14 -3 -6 -6z"/>
<path d="M31848 34853 c6 -2 18 -2 25 0 6 3 1 5 -13 5 -14 0 -19 -2 -12 -5z"/>
<path d="M31788 34843 c7 -3 16 -2 19 1 4 3 -2 6 -13 5 -11 0 -14 -3 -6 -6z"/>
<path d="M31738 34833 c6 -2 18 -2 25 0 6 3 1 5 -13 5 -14 0 -19 -2 -12 -5z"/>
<path d="M31678 34823 c7 -3 16 -2 19 1 4 3 -2 6 -13 5 -11 0 -14 -3 -6 -6z"/>
<path d="M31618 34813 c7 -3 16 -2 19 1 4 3 -2 6 -13 5 -11 0 -14 -3 -6 -6z"/>
<path d="M31558 34803 c6 -2 18 -2 25 0 6 3 1 5 -13 5 -14 0 -19 -2 -12 -5z"/>
<path d="M31388 34773 c6 -2 18 -2 25 0 6 3 1 5 -13 5 -14 0 -19 -2 -12 -5z"/>
<path d="M31338 34763 c7 -3 16 -2 19 1 4 3 -2 6 -13 5 -11 0 -14 -3 -6 -6z"/>
<path d="M31278 34753 c7 -3 16 -2 19 1 4 3 -2 6 -13 5 -11 0 -14 -3 -6 -6z"/>
<path d="M31218 34743 c7 -3 16 -2 19 1 4 3 -2 6 -13 5 -11 0 -14 -3 -6 -6z"/>
<path d="M31108 34723 c7 -3 16 -2 19 1 4 3 -2 6 -13 5 -11 0 -14 -3 -6 -6z"/>
<path d="M31048 34713 c6 -2 18 -2 25 0 6 3 1 5 -13 5 -14 0 -19 -2 -12 -5z"/>
<path d="M30998 34703 c7 -3 16 -2 19 1 4 3 -2 6 -13 5 -11 0 -14 -3 -6 -6z"/>
<path d="M27418 34073 c7 -3 16 -2 19 1 4 3 -2 6 -13 5 -11 0 -14 -3 -6 -6z"/>
<path d="M27248 34043 c7 -3 16 -2 19 1 4 3 -2 6 -13 5 -11 0 -14 -3 -6 -6z"/>
<path d="M27078 34013 c7 -3 16 -2 19 1 4 3 -2 6 -13 5 -11 0 -14 -3 -6 -6z"/>
<path d="M27710 33989 c-58 -11 -208 -37 -335 -59 -126 -22 -252 -45 -280 -50
-27 -6 -165 -31 -305 -56 -140 -25 -304 -55 -365 -65 -60 -11 -200 -36 -310
-55 -110 -19 -220 -39 -245 -43 -63 -12 -428 -77 -590 -105 -74 -13 -247 -43
-385 -66 -137 -24 -254 -46 -258 -50 -5 -4 456 -533 1024 -1176 568 -643 1116
-1263 1217 -1379 102 -115 187 -211 191 -212 5 -3 3156 550 3209 562 l24 6
-34 39 c-18 21 -568 645 -1222 1385 -885 1000 -1195 1345 -1210 1344 -12 0
-68 -10 -126 -20z"/>
<path d="M26058 33833 c7 -3 16 -2 19 1 4 3 -2 6 -13 5 -11 0 -14 -3 -6 -6z"/>
<path d="M25998 33823 c7 -3 16 -2 19 1 4 3 -2 6 -13 5 -11 0 -14 -3 -6 -6z"/>
<path d="M25888 33803 c7 -3 16 -2 19 1 4 3 -2 6 -13 5 -11 0 -14 -3 -6 -6z"/>
<path d="M25828 33793 c7 -3 16 -2 19 1 4 3 -2 6 -13 5 -11 0 -14 -3 -6 -6z"/>
<path d="M25658 33763 c7 -3 16 -2 19 1 4 3 -2 6 -13 5 -11 0 -14 -3 -6 -6z"/>
<path d="M25488 33733 c7 -3 16 -2 19 1 4 3 -2 6 -13 5 -11 0 -14 -3 -6 -6z"/>
<path d="M21178 32973 c7 -3 16 -2 19 1 4 3 -2 6 -13 5 -11 0 -14 -3 -6 -6z"/>
<path d="M21008 32943 c7 -3 16 -2 19 1 4 3 -2 6 -13 5 -11 0 -14 -3 -6 -6z"/>
<path d="M20838 32913 c7 -3 16 -2 19 1 4 3 -2 6 -13 5 -11 0 -14 -3 -6 -6z"/>
<path d="M21295 32853 c-33 -6 -78 -14 -100 -18 -22 -3 -47 -7 -55 -9 -26 -5
-84 -16 -110 -20 -14 -2 -53 -9 -88 -16 -35 -6 -75 -13 -90 -15 -15 -2 -47 -8
-72 -14 -25 -5 -67 -13 -95 -16 -63 -9 -74 -11 -105 -19 -14 -3 -41 -8 -60
-11 -19 -3 -71 -12 -114 -20 -43 -8 -82 -12 -87 -10 -4 3 -10 1 -13 -4 -5 -7
-63 -18 -141 -26 -11 -2 -27 -5 -35 -8 -16 -6 -1129 -201 -1640 -287 -168 -28
-313 -55 -323 -58 -14 -6 143 -188 804 -937 452 -511 1002 -1134 1222 -1384
l401 -453 35 6 c291 47 3179 561 3185 567 6 5 -13 32 -45 66 -30 32 -579 652
-1221 1379 -641 726 -1172 1320 -1180 1320 -7 0 -40 -6 -73 -13z"/>
<path d="M20378 32833 c7 -3 16 -2 19 1 4 3 -2 6 -13 5 -11 0 -14 -3 -6 -6z"/>
<path d="M20328 32823 c7 -3 16 -2 19 1 4 3 -2 6 -13 5 -11 0 -14 -3 -6 -6z"/>
<path d="M20268 32813 c7 -3 16 -2 19 1 4 3 -2 6 -13 5 -11 0 -14 -3 -6 -6z"/>
<path d="M20158 32793 c7 -3 16 -2 19 1 4 3 -2 6 -13 5 -11 0 -14 -3 -6 -6z"/>
<path d="M19818 32733 c7 -3 16 -2 19 1 4 3 -2 6 -13 5 -11 0 -14 -3 -6 -6z"/>
<path d="M19698 32713 c7 -3 16 -2 19 1 4 3 -2 6 -13 5 -11 0 -14 -3 -6 -6z"/>
<path d="M19648 32703 c7 -3 16 -2 19 1 4 3 -2 6 -13 5 -11 0 -14 -3 -6 -6z"/>
<path d="M19478 32673 c7 -3 16 -2 19 1 4 3 -2 6 -13 5 -11 0 -14 -3 -6 -6z"/>
<path d="M19418 32663 c7 -3 16 -2 19 1 4 3 -2 6 -13 5 -11 0 -14 -3 -6 -6z"/>
<path d="M19308 32643 c7 -3 16 -2 19 1 4 3 -2 6 -13 5 -11 0 -14 -3 -6 -6z"/>
<path d="M19248 32633 c7 -3 16 -2 19 1 4 3 -2 6 -13 5 -11 0 -14 -3 -6 -6z"/>
<path d="M19188 32623 c7 -3 16 -2 19 1 4 3 -2 6 -13 5 -11 0 -14 -3 -6 -6z"/>
<path d="M19138 32613 c7 -3 16 -2 19 1 4 3 -2 6 -13 5 -11 0 -14 -3 -6 -6z"/>
<path d="M19078 32603 c7 -3 16 -2 19 1 4 3 -2 6 -13 5 -11 0 -14 -3 -6 -6z"/>
<path d="M18968 32583 c7 -3 16 -2 19 1 4 3 -2 6 -13 5 -11 0 -14 -3 -6 -6z"/>
<path d="M18908 32573 c7 -3 16 -2 19 1 4 3 -2 6 -13 5 -11 0 -14 -3 -6 -6z"/>
<path d="M18848 32563 c7 -3 16 -2 19 1 4 3 -2 6 -13 5 -11 0 -14 -3 -6 -6z"/>
<path d="M18798 32553 c7 -3 16 -2 19 1 4 3 -2 6 -13 5 -11 0 -14 -3 -6 -6z"/>
<path d="M18738 32543 c7 -3 16 -2 19 1 4 3 -2 6 -13 5 -11 0 -14 -3 -6 -6z"/>
<path d="M18678 32533 c7 -3 16 -2 19 1 4 3 -2 6 -13 5 -11 0 -14 -3 -6 -6z"/>
<path d="M18628 32523 c7 -3 16 -2 19 1 4 3 -2 6 -13 5 -11 0 -14 -3 -6 -6z"/>
<path d="M18568 32513 c7 -3 16 -2 19 1 4 3 -2 6 -13 5 -11 0 -14 -3 -6 -6z"/>
<path d="M18508 32503 c7 -3 16 -2 19 1 4 3 -2 6 -13 5 -11 0 -14 -3 -6 -6z"/>
<path d="M18458 32493 c7 -3 16 -2 19 1 4 3 -2 6 -13 5 -11 0 -14 -3 -6 -6z"/>
<path d="M18338 32473 c7 -3 16 -2 19 1 4 3 -2 6 -13 5 -11 0 -14 -3 -6 -6z"/>
<path d="M18288 32463 c7 -3 16 -2 19 1 4 3 -2 6 -13 5 -11 0 -14 -3 -6 -6z"/>
<path d="M18228 32453 c7 -3 16 -2 19 1 4 3 -2 6 -13 5 -11 0 -14 -3 -6 -6z"/>
<path d="M18168 32443 c7 -3 16 -2 19 1 4 3 -2 6 -13 5 -11 0 -14 -3 -6 -6z"/>
<path d="M18108 32433 c6 -2 18 -2 25 0 6 3 1 5 -13 5 -14 0 -19 -2 -12 -5z"/>
<path d="M18058 32423 c7 -3 16 -2 19 1 4 3 -2 6 -13 5 -11 0 -14 -3 -6 -6z"/>
<path d="M14687 31832 c-48 -8 -86 -17 -83 -19 6 -6 158 18 176 28 19 10 15
10 -93 -9z"/>
<path d="M14553 31803 c9 -2 23 -2 30 0 6 3 -1 5 -18 5 -16 0 -22 -2 -12 -5z"/>
<path d="M14493 31793 c9 -2 23 -2 30 0 6 3 -1 5 -18 5 -16 0 -22 -2 -12 -5z"/>
<path d="M14438 31783 c6 -2 18 -2 25 0 6 3 1 5 -13 5 -14 0 -19 -2 -12 -5z"/>
<path d="M14383 31773 c9 -2 23 -2 30 0 6 3 -1 5 -18 5 -16 0 -22 -2 -12 -5z"/>
<path d="M14323 31763 c9 -2 23 -2 30 0 6 3 -1 5 -18 5 -16 0 -22 -2 -12 -5z"/>
<path d="M14268 31753 c6 -2 18 -2 25 0 6 3 1 5 -13 5 -14 0 -19 -2 -12 -5z"/>
<path d="M14208 31743 c6 -2 18 -2 25 0 6 3 1 5 -13 5 -14 0 -19 -2 -12 -5z"/>
<path d="M14105 31730 c-27 -7 -27 -8 -5 -8 14 0 39 4 55 8 27 7 27 8 5 8 -14
0 -38 -4 -55 -8z"/>
<path d="M14585 31679 c-154 -27 -768 -135 -1365 -239 -597 -105 -1118 -197
-1158 -205 -40 -8 -89 -15 -110 -15 -52 0 -314 53 -299 61 6 3 62 14 122 24
61 9 153 25 205 36 52 10 111 21 130 24 19 4 69 13 110 20 242 44 1156 205
1164 205 5 0 7 3 4 6 -4 3 -138 -18 -300 -46 -161 -28 -567 -100 -903 -159
l-609 -107 -91 12 c-391 56 -574 64 -1450 64 -868 0 -835 2 -969 -68 -132 -68
-237 -198 -283 -347 -17 -58 -18 -172 -18 -2920 0 -2746 1 -2862 18 -2919 33
-105 76 -177 151 -251 124 -123 233 -165 428 -165 l118 0 3 -7077 2 -7078 22
-85 c78 -313 253 -566 508 -735 138 -92 291 -153 473 -187 54 -11 2406 -13
12172 -13 l12105 0 104 23 c519 115 886 515 950 1037 8 65 11 2095 11 7258 l0
7167 35 0 c44 0 126 31 168 63 18 14 40 42 51 63 10 22 22 47 27 56 27 52 33
119 36 392 l4 290 -131 215 c-71 119 -388 636 -703 1150 l-572 935 -885 -2
c-976 -2 -2373 -13 -2379 -18 -2 -2 417 -691 931 -1531 514 -840 947 -1549
962 -1575 l28 -48 -1644 0 -1643 0 -49 78 c-27 42 -399 649 -826 1347 -427
699 -840 1374 -918 1500 l-140 230 -1642 3 -1641 2 12 -22 c6 -12 422 -693
924 -1512 501 -820 928 -1519 948 -1553 l36 -63 -1643 0 -1643 0 -58 93 c-31
50 -458 747 -948 1547 -489 800 -898 1467 -909 1483 l-20 27 -1635 0 c-1501
-1 -1634 -2 -1629 -17 4 -9 379 -624 833 -1367 455 -743 876 -1432 936 -1531
60 -99 118 -195 129 -212 l20 -33 -1645 0 -1645 0 -19 33 c-11 17 -74 120
-140 227 l-120 195 -11 190 c-63 1030 -372 1990 -924 2873 -49 79 -88 145 -86
147 1 2 381 70 843 151 462 81 842 148 844 150 2 2 -50 63 -116 136 -66 73
-598 675 -1183 1338 -584 663 -1083 1226 -1109 1253 -25 26 -52 47 -61 46 -8
0 -141 -23 -295 -50z m-4587 -356 c72 -5 90 -9 76 -16 -12 -7 -163 -12 -393
-14 -209 -2 -391 -8 -412 -13 -21 -6 -41 -10 -46 -8 -17 4 -100 -27 -129 -49
-17 -13 -35 -23 -40 -23 -13 -1 -77 -62 -104 -101 -13 -19 -27 -36 -30 -39 -3
-3 -16 -25 -28 -50 -53 -107 -52 -77 -56 -1986 -2 -975 -8 -1794 -13 -1824
l-9 -55 -7 40 c-18 99 -27 799 -27 2151 0 1547 0 1560 46 1670 67 162 230 291
414 328 32 6 635 -2 758 -11z m3188 -586 c76 -14 463 -218 689 -362 126 -81
232 -150 235 -154 3 -4 34 -27 70 -53 36 -25 97 -72 135 -105 39 -32 90 -74
115 -93 25 -19 50 -39 56 -45 7 -5 26 -21 44 -35 18 -14 76 -66 129 -116 53
-50 114 -107 136 -127 50 -45 207 -203 258 -260 20 -23 62 -68 92 -100 30 -32
55 -60 55 -63 0 -4 37 -49 155 -188 14 -16 25 -31 25 -33 0 -3 27 -37 60 -77
33 -40 60 -78 60 -85 0 -6 7 -14 15 -17 8 -4 15 -11 15 -16 0 -6 22 -40 49
-77 60 -83 121 -178 121 -191 0 -6 5 -10 10 -10 6 0 10 -7 10 -15 0 -8 4 -15
9 -15 5 0 12 -11 15 -25 4 -14 11 -25 16 -25 6 0 10 -7 10 -15 0 -8 5 -15 10
-15 6 0 10 -6 10 -12 0 -7 22 -47 48 -88 27 -42 84 -145 128 -230 43 -85 82
-156 87 -158 4 -2 7 -10 7 -18 0 -8 15 -45 34 -83 41 -81 187 -438 191 -466 2
-11 19 -61 39 -112 20 -51 36 -99 36 -107 0 -7 11 -54 25 -102 49 -173 63
-230 74 -299 7 -38 14 -81 17 -95 12 -67 -22 25 -67 182 -27 94 -52 174 -55
179 -3 5 -7 17 -9 26 -10 53 -41 145 -66 196 -16 32 -40 90 -54 129 -99 275
-331 754 -476 984 -49 78 -89 146 -89 152 0 6 -4 12 -9 14 -4 2 -32 41 -61 88
-106 169 -309 434 -500 650 -128 146 -186 205 -356 365 -81 77 -156 148 -167
158 -10 11 -67 58 -126 106 -128 103 -136 111 -163 134 -11 11 -69 55 -130 99
-60 44 -117 86 -126 93 -9 8 -69 48 -132 89 -63 42 -122 80 -130 86 -56 37
-132 83 -170 101 -25 12 -49 28 -55 35 -9 12 -138 85 -258 146 -28 15 -57 31
-63 36 -6 6 -30 20 -53 31 -22 12 -41 24 -41 27 0 2 8 1 18 -4 9 -5 31 -12 48
-15z m-3163 -92 c254 -54 430 -309 388 -562 -27 -158 -135 -306 -271 -370 -36
-17 -76 -33 -90 -35 -23 -3 -25 1 -31 50 -4 29 -11 58 -17 65 -12 14 -44 188
-68 372 -9 72 -21 134 -25 140 -5 5 -9 20 -9 35 0 34 -11 70 -20 70 -5 0 -6
-12 -4 -27 2 -16 11 -71 19 -123 8 -52 18 -113 20 -135 3 -22 13 -92 21 -155
24 -177 33 -280 27 -296 -12 -33 -165 -10 -269 41 -291 142 -365 534 -148 774
91 102 226 169 280 141 22 -12 26 -11 40 8 18 26 58 28 157 7z m-121 -4442
c17 -15 19 -15 38 2 19 17 27 18 78 7 91 -19 191 -74 253 -139 73 -76 104
-132 130 -229 67 -255 -86 -523 -340 -598 -80 -23 -111 -21 -111 7 0 31 15 51
34 44 8 -3 18 -2 21 3 4 6 -5 10 -19 10 -42 0 -49 45 -52 335 -2 143 -7 289
-12 325 -7 50 -9 -4 -11 -230 -1 -162 -5 -342 -9 -400 l-7 -105 -58 1 c-84 2
-192 57 -274 140 -266 270 -142 728 224 829 66 18 93 18 115 -2z m5552 -7
c247 -78 395 -342 331 -589 -14 -56 -60 -154 -88 -189 -15 -19 -47 -24 -47 -8
0 5 -12 15 -26 23 -14 7 -141 128 -282 268 -141 140 -281 275 -310 299 -48 40
-53 47 -50 79 3 32 10 40 58 69 126 75 275 92 414 48z m-216 -423 c317 -322
382 -393 382 -419 0 -25 -88 -79 -170 -105 -84 -26 -216 -26 -301 1 -226 69
-376 306 -341 537 19 130 87 263 134 263 16 0 102 -81 296 -277z m20531 -1645
c26 -115 31 -1326 27 -5618 -4 -3958 -10 -5059 -32 -5563 -4 -92 -11 -164 -15
-160 -14 14 -28 881 -34 2068 -8 1502 -8 8309 0 8725 8 451 17 600 35 600 4 0
13 -24 19 -52z m-22972 -1146 c53 -28 98 -83 119 -146 21 -62 25 -329 7 -391
-38 -124 -111 -178 -254 -183 -105 -5 -171 19 -224 80 -53 63 -68 136 -64 319
4 145 6 157 32 212 50 101 123 139 257 134 63 -3 96 -9 127 -25z m2346 8 c81
-30 141 -103 149 -180 3 -32 1 -35 -27 -38 -28 -3 -31 1 -47 46 -23 63 -68
107 -123 121 -127 32 -232 -14 -272 -117 -14 -38 -18 -74 -17 -182 1 -149 12
-204 50 -250 41 -49 80 -63 164 -63 110 0 174 42 201 133 13 43 41 59 65 39
30 -25 -12 -128 -73 -178 -51 -42 -113 -61 -197 -61 -121 1 -196 42 -244 133
-25 49 -27 60 -30 214 -3 130 0 173 13 220 26 90 71 140 154 169 56 20 171 17
234 -6z m1772 -7 c47 -25 86 -64 109 -111 39 -77 45 -354 10 -456 -37 -108
-134 -162 -278 -154 -123 7 -182 44 -228 143 -21 46 -23 64 -23 220 0 138 3
180 18 222 22 63 82 126 140 147 61 23 199 16 252 -11z m-5602 1 c177 -60 177
-338 0 -398 -34 -12 -85 -16 -185 -16 l-138 0 0 -151 0 -150 -32 3 -33 3 1
215 c1 118 2 281 3 363 l1 147 168 0 c127 0 180 -4 215 -16z m757 -14 c24 -14
54 -40 67 -58 42 -64 42 -180 0 -244 -19 -27 -74 -68 -111 -81 -6 -2 27 -66
72 -143 45 -77 82 -148 82 -157 0 -12 -8 -17 -28 -17 -26 0 -35 11 -95 113
-36 61 -77 131 -91 155 l-26 42 -104 0 -105 0 -3 -152 -3 -153 -30 0 -30 0 -3
350 c-1 192 0 356 3 363 4 11 41 13 182 10 168 -3 180 -4 223 -28z m1491 14
c68 -20 120 -72 140 -140 18 -64 19 -361 1 -421 -16 -54 -53 -98 -106 -126
-37 -19 -59 -22 -228 -25 l-188 -4 0 359 c0 198 3 363 7 366 3 4 77 7 163 7
114 0 171 -4 211 -16z m469 -259 c3 -170 9 -279 17 -295 13 -29 57 -72 93 -91
14 -7 54 -13 90 -13 82 0 137 28 171 88 23 40 24 50 29 311 l5 270 33 3 33 3
-3 -278 -3 -278 -30 -60 c-24 -47 -41 -66 -79 -90 -47 -28 -55 -30 -156 -30
-101 0 -109 2 -156 30 -37 24 -56 45 -79 90 l-30 59 -3 264 c-2 145 -1 271 2
279 4 9 16 13 33 11 l28 -3 5 -270z m1950 245 l0 -30 -109 0 -108 0 -7 -108
c-4 -60 -4 -176 0 -259 3 -83 3 -185 -1 -227 -7 -76 -7 -76 -36 -76 l-29 0 0
335 0 335 -115 0 -115 0 0 30 0 30 260 0 260 0 0 -30z m271 -72 c1 -57 3 -200
5 -318 2 -118 1 -236 -2 -262 -6 -45 -8 -48 -35 -48 l-29 0 0 365 0 365 30 0
30 0 1 -102z m1302 -190 l192 -292 5 290 5 289 33 3 32 3 0 -365 0 -366 -30 0
c-24 0 -36 8 -60 43 -34 49 -188 284 -287 439 l-68 106 -5 -291 -5 -292 -32
-3 -33 -3 0 359 c0 197 3 362 7 365 3 4 17 7 30 7 20 0 54 -45 216 -292z
m16858 -958 c13 -7 19 -21 19 -45 0 -24 -6 -38 -19 -45 -14 -7 -1248 -10
-3910 -10 l-3891 0 0 -602 c0 -332 3 -1025 7 -1540 l6 -938 3884 0 c2659 0
3890 -3 3904 -10 27 -15 25 -64 -3 -84 -20 -14 -407 -16 -3905 -16 l-3883 0 0
-1805 0 -1805 3886 0 c2659 0 3891 -3 3905 -10 29 -16 25 -65 -7 -86 -24 -16
-755 -17 -11762 -11 l-11737 7 -17 20 c-18 23 -14 48 10 68 13 9 1590 12 7814
12 l7798 0 0 1804 0 1803 -7802 7 c-7764 7 -7803 7 -7820 27 -18 22 -14 47 10
67 13 9 808 12 3904 12 l3888 0 0 1540 0 1540 -3879 0 c-2347 0 -3889 4 -3904
9 -27 11 -37 36 -27 66 7 20 29 20 3876 25 8065 10 19635 10 19655 0z m-22016
-579 c48 -21 98 -76 116 -128 9 -25 14 -85 14 -174 0 -131 -1 -137 -30 -194
-42 -82 -97 -116 -199 -123 -64 -4 -81 -1 -128 21 -59 27 -102 73 -124 134
-16 47 -18 262 -3 317 40 144 203 212 354 147z m-630 -11 c63 -32 95 -83 95
-155 0 -71 -29 -128 -79 -157 -23 -13 -41 -26 -41 -29 0 -4 29 -58 65 -120 36
-62 64 -118 62 -124 -6 -18 -72 -18 -88 1 -8 9 -41 64 -74 123 l-60 106 -77 3
-77 3 -3 -123 -3 -123 -40 0 -40 0 -3 299 c-2 224 1 302 10 313 10 12 38 14
158 11 130 -3 150 -6 195 -28z m1033 18 c9 -9 12 -84 12 -275 l0 -263 160 0
160 0 6 -25 c14 -54 11 -55 -205 -55 -172 0 -200 2 -205 16 -3 9 -6 145 -6
303 0 302 1 311 45 311 12 0 26 -5 33 -12z m583 -153 c4 -88 4 -211 1 -272
l-5 -112 164 -3 164 -3 0 -35 0 -35 -200 0 -200 0 -3 304 c-2 326 -3 324 48
319 l25 -3 6 -160z m14167 126 c2 -20 -2 -37 -10 -42 -7 -5 -50 -9 -95 -9
l-83 0 -2 -267 -3 -268 -40 0 -40 0 -3 272 -2 272 -93 3 c-87 3 -92 4 -95 26
-7 50 3 53 242 50 l221 -3 3 -34z m385 25 c24 -24 241 -596 230 -607 -6 -6
-25 -9 -44 -7 -30 3 -35 8 -59 68 l-26 65 -155 3 -154 2 -26 -67 c-26 -68 -26
-68 -68 -71 -31 -2 -41 0 -41 12 0 15 201 540 222 580 6 12 16 24 22 28 19 13
84 9 99 -6z m477 -105 l5 -114 128 117 c125 114 129 117 170 114 28 -2 42 -8
42 -17 0 -8 -63 -73 -140 -145 -77 -71 -141 -135 -142 -140 -1 -6 66 -74 148
-151 82 -77 149 -148 149 -157 0 -15 -9 -18 -46 -18 -45 0 -48 2 -172 120
l-127 120 -2 -97 c-4 -140 -6 -145 -51 -141 l-37 3 -3 304 c-2 326 -3 324 48
319 25 -3 25 -4 30 -117z m918 107 c7 -7 12 -22 12 -34 0 -43 -20 -47 -175
-40 l-145 8 0 -96 0 -96 138 0 c145 0 162 -5 162 -45 0 -40 -17 -45 -162 -45
l-138 0 0 -95 0 -95 159 0 c151 0 160 -1 166 -20 3 -11 3 -29 0 -40 -6 -20
-13 -20 -208 -18 l-202 3 -3 299 c-2 212 1 303 9 312 15 19 369 20 387 2z
m-15367 -3174 c67 -20 133 -84 149 -144 13 -50 8 -60 -35 -60 -29 0 -35 5 -56
47 -32 64 -75 88 -156 88 -67 0 -98 -15 -137 -69 -18 -23 -21 -45 -24 -151 -3
-107 -1 -130 17 -169 27 -63 68 -86 150 -86 81 0 124 24 154 89 23 47 54 63
85 43 21 -14 4 -77 -32 -125 -49 -64 -113 -92 -211 -92 -92 0 -141 20 -192 79
-48 54 -58 96 -58 241 0 145 10 187 58 241 67 78 172 102 288 68z m1242 -9
c95 -45 129 -115 135 -276 6 -155 -11 -216 -77 -280 -127 -123 -350 -74 -405
88 -22 63 -22 260 0 332 19 67 76 125 141 145 59 19 156 15 206 -9z m-3479 1
c62 -19 111 -58 138 -109 19 -36 23 -61 26 -179 4 -129 2 -140 -21 -191 -27
-60 -71 -99 -136 -122 -55 -19 -300 -22 -319 -3 -9 9 -12 89 -12 299 0 158 3
294 6 303 5 14 27 16 138 16 86 0 150 -5 180 -14z m441 -301 l0 -310 -30 -3
c-51 -6 -53 2 -48 316 2 158 6 293 8 300 3 8 17 12 37 10 l33 -3 0 -310z m561
300 c53 -16 96 -53 113 -98 16 -40 14 -123 -3 -156 -15 -29 -74 -85 -97 -93
-9 -3 9 -42 55 -122 37 -65 65 -124 62 -132 -3 -8 -19 -14 -40 -14 -40 0 -47
8 -127 152 l-54 98 -77 0 -77 0 -3 -122 -3 -123 -28 -3 c-57 -7 -57 -6 -57
308 0 159 3 295 6 304 5 14 27 16 143 16 92 0 154 -5 187 -15z m719 -25 l0
-35 -157 -3 -158 -3 0 -94 0 -94 148 -3 147 -3 0 -35 0 -35 -147 -3 -148 -3 0
-99 0 -99 133 6 c157 7 184 2 193 -32 13 -51 -2 -55 -205 -55 -132 0 -191 4
-199 12 -17 17 -17 589 0 606 9 9 63 12 203 10 l190 -3 0 -35z m1263 -2 l3
-38 -95 0 -96 0 -2 -272 -3 -273 -29 -3 c-16 -2 -34 2 -40 8 -8 8 -11 92 -11
273 l0 262 -92 3 -93 3 0 33 c0 18 3 36 7 40 4 3 106 5 227 4 l221 -3 3 -37z
m1146 32 c45 -10 81 -34 110 -73 25 -33 34 -134 16 -177 -12 -30 -75 -93 -100
-102 -10 -3 6 -39 54 -122 37 -65 65 -124 62 -132 -3 -8 -20 -14 -41 -14 -40
0 -48 10 -135 168 l-45 82 -77 0 -77 0 -3 -122 -3 -123 -28 -3 c-57 -7 -57 -6
-57 308 0 159 3 295 6 304 5 14 27 16 143 16 75 0 154 -5 175 -10z m11606 -26
c97 -53 135 -153 58 -154 -9 0 -37 20 -61 44 -27 28 -58 48 -85 55 -96 26
-191 -39 -163 -112 13 -33 39 -46 171 -87 58 -17 120 -43 138 -56 62 -48 77
-114 43 -190 -71 -156 -379 -149 -455 10 -21 45 -12 66 29 66 27 0 37 -6 54
-34 28 -45 79 -68 151 -67 64 0 110 18 134 53 40 56 -2 105 -117 138 -142 42
-164 51 -197 85 -30 31 -35 43 -38 98 -3 52 0 67 20 96 61 91 206 116 318 55z
m649 7 c51 -27 96 -82 112 -140 8 -27 13 -95 12 -166 0 -102 -4 -129 -22 -170
-40 -90 -102 -133 -203 -142 -110 -11 -203 39 -248 133 -20 40 -22 60 -21 182
1 75 7 153 13 174 21 70 85 129 163 149 47 13 150 2 194 -20z m401 -211 c5
-203 7 -228 25 -260 52 -89 196 -93 259 -7 19 26 21 46 26 260 l5 232 37 3
c33 3 38 0 44 -22 3 -13 4 -120 2 -238 -3 -195 -5 -216 -25 -253 -44 -83 -118
-125 -217 -125 -79 0 -126 18 -172 64 -64 64 -74 110 -74 351 0 219 2 228 55
223 l30 -3 5 -225z m686 222 c6 -4 77 -106 157 -227 l147 -220 0 216 c0 236 2
244 57 237 l28 -3 0 -310 0 -310 -28 -3 c-16 -2 -35 2 -44 10 -9 7 -79 110
-157 228 l-141 214 -5 -224 -5 -225 -40 0 -40 0 -3 299 c-2 212 1 303 9 312
12 15 47 18 65 6z m937 -6 c63 -19 102 -49 134 -104 26 -44 28 -56 32 -180 2
-108 0 -142 -14 -178 -22 -58 -58 -100 -109 -127 -37 -20 -55 -22 -201 -22
l-160 0 -3 299 c-2 212 1 303 9 312 16 19 248 19 312 0z m-18364 -3730 c99
-51 156 -196 76 -196 -26 0 -55 24 -55 45 0 8 -13 30 -30 48 -55 63 -168 73
-231 20 -54 -46 -64 -76 -63 -199 1 -127 12 -169 55 -210 29 -27 35 -29 114
-29 75 0 86 2 110 25 15 14 34 41 42 60 17 40 29 50 60 50 33 0 44 -28 28 -73
-31 -92 -108 -146 -219 -154 -107 -9 -196 34 -244 116 -25 43 -27 56 -31 180
-3 146 5 193 45 252 25 37 86 77 138 90 54 14 151 2 205 -25z m586 -6 c36 -70
226 -573 221 -586 -3 -8 -20 -14 -40 -14 -33 0 -35 2 -63 70 l-28 70 -155 0
-155 0 -28 -70 c-28 -68 -30 -70 -63 -70 -19 0 -37 6 -40 13 -4 12 196 542
226 597 8 16 21 20 60 20 45 0 51 -3 65 -30z m566 -158 l96 -184 25 44 c14 24
55 102 91 174 36 71 72 136 80 143 9 7 31 11 49 9 l33 -3 0 -310 0 -310 -40 0
-40 0 -5 212 -5 212 -64 -122 c-35 -67 -71 -130 -79 -139 -16 -19 -58 -23 -81
-9 -7 5 -44 69 -82 142 l-68 134 -1 -206 c0 -225 -2 -234 -57 -227 l-28 3 -3
300 c-1 165 0 306 3 313 3 9 18 12 42 10 l38 -3 96 -183z m999 168 c6 -12 8
-29 5 -40 -6 -18 -18 -20 -163 -22 l-157 -3 -3 -92 -3 -93 146 0 145 0 10 -25
c20 -52 10 -55 -146 -55 l-144 0 0 -100 0 -99 158 -3 157 -3 0 -35 0 -35 -200
0 -200 0 -3 300 c-1 165 0 305 3 312 3 10 51 13 194 13 181 0 191 -1 201 -20z
m555 -2 c93 -50 129 -172 77 -261 -16 -29 -65 -70 -93 -79 -6 -2 19 -55 55
-117 80 -138 83 -153 24 -149 l-42 3 -70 123 -70 122 -78 0 -77 0 -3 -122 -3
-123 -30 -3 c-55 -7 -57 3 -50 318 4 157 9 291 11 299 7 20 308 11 349 -11z
m577 5 c21 -25 240 -592 233 -604 -9 -13 -73 -11 -82 4 -4 6 -17 37 -29 67
l-21 55 -155 3 -155 2 -23 -57 c-31 -76 -37 -83 -75 -83 -18 0 -35 6 -37 13
-5 13 213 580 232 603 18 20 93 18 112 -3z m19359 -2063 c28 -16 25 -65 -5
-85 -22 -15 -1055 -16 -11763 -11 l-11738 6 -17 21 c-18 22 -14 47 10 67 21
16 23482 18 23513 2z m-22687 -524 c66 -20 110 -57 140 -118 24 -48 26 -62 26
-182 0 -140 -14 -191 -63 -244 -52 -56 -90 -66 -256 -70 -121 -3 -156 -1 -162
10 -14 22 -11 592 3 606 18 18 252 16 312 -2z m635 1 c16 -20 231 -575 231
-598 0 -15 -7 -19 -35 -19 -39 0 -51 14 -80 93 l-18 47 -154 -2 -155 -3 -27
-65 c-25 -59 -31 -65 -61 -68 -18 -2 -37 1 -42 6 -10 10 204 575 230 605 18
21 94 24 111 4z m736 -27 l0 -35 -92 -3 -93 -3 -2 -272 -3 -272 -34 -3 c-20
-2 -37 2 -42 10 -5 7 -9 131 -9 275 l0 262 -92 3 c-89 3 -93 4 -96 26 -8 53
-10 53 235 50 l228 -3 0 -35z m570 0 l0 -35 -157 -3 -158 -3 0 -94 0 -94 148
-3 147 -3 0 -35 0 -35 -147 -3 -148 -3 0 -99 0 -100 159 0 c151 0 160 -1 166
-20 3 -11 3 -29 0 -40 -6 -19 -15 -20 -205 -20 -179 0 -199 2 -205 18 -7 18 4
591 12 605 2 4 91 6 196 5 l192 -3 0 -35z"/>
<path d="M9894 29749 c-3 -5 -19 -6 -36 -2 -22 4 -29 3 -24 -5 4 -7 20 -12 36
-12 16 0 32 -4 35 -10 11 -18 25 -11 25 13 0 23 -25 33 -36 16z"/>
<path d="M9842 25313 c-15 -6 -6 -23 14 -23 8 0 14 7 14 15 0 15 -6 17 -28 8z"/>
<path d="M15222 25309 c-14 -6 -14 -8 -2 -12 30 -10 110 -16 110 -8 0 4 14 7
30 6 17 -1 33 2 36 7 3 4 -7 9 -23 10 -73 4 -135 2 -151 -3z"/>
<path d="M12585 22938 c-114 -41 -151 -148 -134 -388 9 -136 52 -197 153 -220
83 -18 162 4 209 59 42 50 51 95 52 246 0 162 -14 214 -70 264 -54 47 -141 63
-210 39z"/>
<path d="M16705 22938 c-49 -18 -84 -47 -108 -91 -20 -39 -22 -55 -22 -213 l0
-171 30 -48 c40 -65 89 -89 175 -89 99 1 161 44 191 131 22 61 19 306 -4 365
-39 101 -157 153 -262 116z"/>
<path d="M10990 22785 l0 -158 143 5 c126 4 148 7 179 26 41 26 61 67 61 127
0 60 -20 101 -62 127 -32 20 -52 23 -178 26 l-143 4 0 -157z"/>
<path d="M11730 22791 l0 -151 113 0 c130 0 176 10 219 49 27 24 32 36 35 87
3 46 0 66 -16 91 -35 56 -70 67 -218 71 l-133 4 0 -151z"/>
<path d="M13250 22634 l0 -307 135 6 c116 5 140 9 176 29 70 38 83 77 87 248
5 166 -4 214 -49 265 -42 48 -106 65 -241 65 l-108 0 0 -306z"/>
<path d="M18793 20983 c4 -368 7 -1061 7 -1540 l0 -873 3855 0 3855 0 0 1540
0 1540 -3862 0 -3861 0 6 -667z m832 187 c57 -25 106 -80 108 -121 2 -31 -1
-34 -29 -37 -25 -2 -36 3 -58 32 -36 48 -74 66 -139 66 -83 0 -140 -55 -117
-115 11 -30 61 -54 180 -89 148 -44 194 -89 187 -183 -7 -100 -85 -162 -213
-171 -119 -8 -219 40 -258 123 -21 43 -9 65 34 65 21 0 34 -8 48 -32 39 -63
116 -89 202 -68 56 13 100 55 100 95 0 35 -48 69 -136 94 -129 37 -159 50
-194 86 -42 44 -53 120 -25 180 44 92 191 127 310 75z m653 8 c70 -21 147
-118 140 -176 -3 -24 -8 -27 -38 -27 -32 0 -37 4 -57 48 -34 70 -70 89 -161
85 -71 -3 -76 -5 -107 -40 -46 -50 -58 -103 -52 -221 8 -159 53 -213 172 -211
80 1 119 24 148 87 21 44 24 47 61 47 l39 0 -6 -41 c-7 -56 -48 -113 -103
-145 -67 -40 -178 -46 -252 -14 -61 26 -114 82 -130 139 -14 47 -16 273 -2
320 38 134 189 198 348 149z m716 6 c19 -7 22 -73 4 -76 -7 -2 -78 -3 -158 -3
l-145 0 -3 -92 -3 -93 135 0 c74 0 141 -3 150 -6 10 -4 16 -18 16 -39 0 -21
-6 -35 -16 -39 -9 -3 -76 -6 -150 -6 l-134 0 0 -95 0 -95 160 0 160 0 6 -25
c14 -54 11 -55 -205 -55 -180 0 -199 2 -206 18 -6 17 3 576 10 600 3 9 49 12
184 12 99 0 186 -3 195 -6z m293 -16 c11 -13 82 -115 157 -228 l136 -205 0
211 c0 233 4 248 55 242 l30 -3 0 -310 0 -310 -28 -3 c-16 -2 -35 2 -43 9 -9
7 -79 110 -157 228 l-142 215 -5 -224 -5 -225 -34 -3 c-20 -2 -37 2 -42 10
-14 22 -11 592 3 606 19 19 53 14 75 -10z m1001 10 c19 -19 14 -56 -8 -68 -14
-7 -66 -9 -160 -4 l-140 7 0 -97 0 -96 138 0 c146 0 162 -5 162 -47 0 -35 -30
-43 -169 -43 l-131 0 0 -95 0 -95 159 0 c151 0 160 -1 166 -20 3 -11 3 -29 0
-40 -6 -20 -13 -20 -208 -18 l-202 3 -3 299 c-2 212 1 303 9 312 15 19 369 20
387 2z"/>
<path d="M12210 21103 c-24 -9 -61 -45 -78 -78 -24 -45 -22 -257 3 -309 43
-91 188 -113 257 -39 38 41 48 84 48 202 -1 171 -43 232 -160 230 -30 0 -62
-3 -70 -6z"/>
<path d="M11490 21001 l0 -111 83 0 c145 0 197 28 197 106 0 23 -3 50 -6 59
-12 32 -66 48 -171 53 l-103 5 0 -112z"/>
<path d="M27821 20947 c-30 -78 -56 -148 -59 -154 -3 -10 25 -13 118 -13 112
0 122 1 115 18 -4 9 -30 76 -57 147 -27 72 -53 133 -56 137 -4 4 -31 -57 -61
-135z"/>
<path d="M15039 17931 c-49 -16 -69 -32 -90 -74 -19 -35 -22 -59 -22 -152 0
-126 11 -170 54 -211 26 -24 39 -29 97 -32 54 -2 73 1 99 17 53 33 67 72 71
199 5 133 -10 187 -62 227 -36 27 -105 39 -147 26z"/>
<path d="M11490 17695 l0 -235 108 6 c176 11 202 40 203 228 1 122 -7 151 -53
194 -34 31 -79 42 -175 42 l-83 0 0 -235z"/>
<path d="M12480 17824 l0 -106 115 4 c108 3 116 4 141 29 32 33 37 92 11 132
-22 34 -71 47 -179 47 l-88 0 0 -106z"/>
<path d="M15620 17824 l0 -106 115 4 c108 3 116 5 140 29 20 19 26 36 27 67 1
86 -44 112 -194 112 l-88 0 0 -106z"/>
<path d="M27925 17915 c-84 -30 -110 -94 -103 -256 5 -119 21 -160 76 -192 44
-26 132 -25 176 2 56 35 69 78 69 216 0 94 -3 128 -17 157 -33 69 -123 102
-201 73z"/>
<path d="M29900 17685 l0 -238 104 5 c178 8 210 47 204 251 -3 99 -6 120 -24
144 -37 50 -75 64 -184 70 l-100 6 0 -238z"/>
<path d="M12229 14032 l-56 -147 58 -3 c33 -2 85 -2 118 0 l58 3 -56 148 c-30
81 -58 147 -61 147 -3 0 -30 -66 -61 -148z"/>
<path d="M14200 14096 l0 -106 105 0 c128 0 159 12 176 69 14 48 3 87 -35 115
-22 17 -46 21 -137 24 l-109 4 0 -106z"/>
<path d="M14943 14053 c-28 -70 -53 -138 -57 -150 -7 -23 -7 -23 108 -23 64 0
116 3 116 7 0 11 -102 278 -110 286 -4 5 -30 -49 -57 -120z"/>
<path d="M11490 11375 l0 -238 104 5 c83 4 110 9 138 26 59 36 70 74 66 217
-3 107 -6 127 -24 152 -38 51 -77 66 -185 71 l-99 5 0 -238z"/>
<path d="M12291 11569 c-66 -170 -101 -262 -101 -269 0 -6 49 -10 116 -10 107
0 116 1 109 18 -3 9 -29 75 -56 147 -28 71 -52 131 -54 134 -3 2 -9 -7 -14
-20z"/>
<path d="M13771 31672 c-139 -25 -249 -48 -243 -50 10 -3 79 8 327 52 168 30
230 44 195 44 -14 0 -139 -21 -279 -46z"/>
<path d="M13425 31610 c-42 -11 -1 -11 50 -1 34 7 35 9 10 9 -16 0 -43 -4 -60
-8z"/>
<path d="M31406 28281 c-4 -5 3 -7 14 -4 23 6 26 13 6 13 -8 0 -17 -4 -20 -9z"/>
<path d="M32668 28283 c371 -2 974 -2 1340 0 367 1 64 2 -673 2 -737 0 -1037
-1 -667 -2z"/>
</g>
</svg>
